<svg width="716" height="73" viewBox="0 0 716 73" fill="none" xmlns="http://www.w3.org/2000/svg">
<path d="M392.478 22.377H394.194V30H392.478V26.766H389.596V30H387.88V22.377H389.596V25.292H392.478V22.377ZM403.062 30C402.981 29.736 402.89 29.4647 402.787 29.186C402.692 28.9073 402.596 28.6287 402.501 28.35H399.531C399.436 28.6287 399.337 28.9073 399.234 29.186C399.139 29.4647 399.051 29.736 398.97 30H397.188C397.474 29.1787 397.745 28.4197 398.002 27.723C398.259 27.0263 398.508 26.37 398.75 25.754C398.999 25.138 399.241 24.555 399.476 24.005C399.718 23.4477 399.967 22.905 400.224 22.377H401.863C402.112 22.905 402.358 23.4477 402.6 24.005C402.842 24.555 403.084 25.138 403.326 25.754C403.575 26.37 403.828 27.0263 404.085 27.723C404.342 28.4197 404.613 29.1787 404.899 30H403.062ZM401.005 24.104C400.968 24.214 400.913 24.3643 400.84 24.555C400.767 24.7457 400.682 24.9657 400.587 25.215C400.492 25.4643 400.385 25.7393 400.268 26.04C400.158 26.3407 400.044 26.656 399.927 26.986H402.094C401.977 26.656 401.863 26.3407 401.753 26.04C401.643 25.7393 401.537 25.4643 401.434 25.215C401.339 24.9657 401.254 24.7457 401.181 24.555C401.108 24.3643 401.049 24.214 401.005 24.104ZM414.156 28.548H415.476V32.035H413.826V30H407.886V22.377H409.602V28.548H412.44V22.377H414.156V28.548ZM418.576 22.377H420.292V30H418.576V22.377ZM425.498 26.183C425.498 26.557 425.542 26.8943 425.63 27.195C425.725 27.4957 425.857 27.756 426.026 27.976C426.202 28.1887 426.414 28.3537 426.664 28.471C426.913 28.5883 427.199 28.647 427.522 28.647C427.837 28.647 428.119 28.5883 428.369 28.471C428.625 28.3537 428.838 28.1887 429.007 27.976C429.183 27.756 429.315 27.4957 429.403 27.195C429.498 26.8943 429.546 26.557 429.546 26.183C429.546 25.809 429.498 25.4717 429.403 25.171C429.315 24.863 429.183 24.6027 429.007 24.39C428.838 24.17 428.625 24.0013 428.369 23.884C428.119 23.7667 427.837 23.708 427.522 23.708C427.199 23.708 426.913 23.7703 426.664 23.895C426.414 24.0123 426.202 24.181 426.026 24.401C425.857 24.6137 425.725 24.874 425.63 25.182C425.542 25.4827 425.498 25.8163 425.498 26.183ZM431.317 26.183C431.317 26.8357 431.218 27.4113 431.02 27.91C430.829 28.4013 430.565 28.8157 430.228 29.153C429.89 29.483 429.487 29.7323 429.018 29.901C428.556 30.0697 428.057 30.154 427.522 30.154C427.001 30.154 426.51 30.0697 426.048 29.901C425.586 29.7323 425.182 29.483 424.838 29.153C424.493 28.8157 424.222 28.4013 424.024 27.91C423.826 27.4113 423.727 26.8357 423.727 26.183C423.727 25.5303 423.829 24.9583 424.035 24.467C424.24 23.9683 424.515 23.5503 424.86 23.213C425.212 22.8757 425.615 22.6227 426.07 22.454C426.532 22.2853 427.016 22.201 427.522 22.201C428.042 22.201 428.534 22.2853 428.996 22.454C429.458 22.6227 429.861 22.8757 430.206 23.213C430.55 23.5503 430.822 23.9683 431.02 24.467C431.218 24.9583 431.317 25.5303 431.317 26.183ZM439.345 22.377H441.061V30H439.345V26.766H436.463V30H434.747V22.377H436.463V25.292H439.345V22.377ZM449.929 30C449.849 29.736 449.757 29.4647 449.654 29.186C449.559 28.9073 449.464 28.6287 449.368 28.35H446.398C446.303 28.6287 446.204 28.9073 446.101 29.186C446.006 29.4647 445.918 29.736 445.837 30H444.055C444.341 29.1787 444.613 28.4197 444.869 27.723C445.126 27.0263 445.375 26.37 445.617 25.754C445.867 25.138 446.109 24.555 446.343 24.005C446.585 23.4477 446.835 22.905 447.091 22.377H448.73C448.98 22.905 449.225 23.4477 449.467 24.005C449.709 24.555 449.951 25.138 450.193 25.754C450.443 26.37 450.696 27.0263 450.952 27.723C451.209 28.4197 451.48 29.1787 451.766 30H449.929ZM447.872 24.104C447.836 24.214 447.781 24.3643 447.707 24.555C447.634 24.7457 447.55 24.9657 447.454 25.215C447.359 25.4643 447.253 25.7393 447.135 26.04C447.025 26.3407 446.912 26.656 446.794 26.986H448.961C448.844 26.656 448.73 26.3407 448.62 26.04C448.51 25.7393 448.404 25.4643 448.301 25.215C448.206 24.9657 448.122 24.7457 448.048 24.555C447.975 24.3643 447.916 24.214 447.872 24.104ZM458.226 23.829C458.204 24.3203 458.174 24.8153 458.138 25.314C458.108 25.8053 458.05 26.282 457.962 26.744C457.881 27.206 457.76 27.6387 457.599 28.042C457.445 28.4453 457.228 28.801 456.95 29.109C456.678 29.417 456.337 29.6627 455.927 29.846C455.516 30.0293 455.014 30.132 454.42 30.154L454.233 28.658C454.761 28.5993 455.168 28.4673 455.454 28.262C455.74 28.0493 455.956 27.7267 456.103 27.294C456.286 26.7587 456.414 26.0693 456.488 25.226C456.568 24.3753 456.609 23.4257 456.609 22.377H461.812V30H460.096V23.829H458.226ZM471.446 27.503C471.446 28.3537 471.131 28.999 470.5 29.439C469.87 29.879 468.99 30.099 467.86 30.099C467.545 30.099 467.182 30.077 466.771 30.033C466.368 29.989 465.968 29.9193 465.572 29.824V22.377H467.288V24.907C467.384 24.8997 467.468 24.896 467.541 24.896C467.622 24.896 467.703 24.896 467.783 24.896C469.023 24.896 469.943 25.1087 470.544 25.534C471.146 25.9593 471.446 26.6157 471.446 27.503ZM467.629 26.348C467.593 26.348 467.541 26.348 467.475 26.348C467.409 26.348 467.347 26.3517 467.288 26.359V28.636C467.369 28.6433 467.461 28.647 467.563 28.647C467.666 28.647 467.791 28.647 467.937 28.647C468.165 28.647 468.385 28.6287 468.597 28.592C468.81 28.5553 468.997 28.493 469.158 28.405C469.32 28.317 469.448 28.1997 469.543 28.053C469.639 27.9063 469.686 27.723 469.686 27.503C469.686 27.2757 469.639 27.0887 469.543 26.942C469.448 26.7953 469.309 26.678 469.125 26.59C468.949 26.502 468.733 26.4397 468.476 26.403C468.227 26.3663 467.945 26.348 467.629 26.348ZM479.421 22.377H481.137V30H479.421V26.766H476.539V30H474.823V22.377H476.539V25.292H479.421V22.377ZM484.901 30V22.377H490.049V23.818H486.617V25.314H489.664V26.722H486.617V28.559H490.302V30H484.901ZM503.319 30C503.238 29.736 503.147 29.4647 503.044 29.186C502.949 28.9073 502.853 28.6287 502.758 28.35H499.788C499.693 28.6287 499.594 28.9073 499.491 29.186C499.396 29.4647 499.308 29.736 499.227 30H497.445C497.731 29.1787 498.002 28.4197 498.259 27.723C498.516 27.0263 498.765 26.37 499.007 25.754C499.256 25.138 499.498 24.555 499.733 24.005C499.975 23.4477 500.224 22.905 500.481 22.377H502.12C502.369 22.905 502.615 23.4477 502.857 24.005C503.099 24.555 503.341 25.138 503.583 25.754C503.832 26.37 504.085 27.0263 504.342 27.723C504.599 28.4197 504.87 29.1787 505.156 30H503.319ZM501.262 24.104C501.225 24.214 501.17 24.3643 501.097 24.555C501.024 24.7457 500.939 24.9657 500.844 25.215C500.749 25.4643 500.642 25.7393 500.525 26.04C500.415 26.3407 500.301 26.656 500.184 26.986H502.351C502.234 26.656 502.12 26.3407 502.01 26.04C501.9 25.7393 501.794 25.4643 501.691 25.215C501.596 24.9657 501.511 24.7457 501.438 24.555C501.365 24.3643 501.306 24.214 501.262 24.104ZM509.859 30H508.143V22.377H513.346V23.829H509.859V30ZM516.663 30V22.377H521.811V23.818H518.379V25.314H521.426V26.722H518.379V28.559H522.064V30H516.663ZM529.932 22.377H531.648V30H529.932V26.766H527.05V30H525.334V22.377H527.05V25.292H529.932V22.377ZM538.888 30.154C537.649 30.154 536.703 29.8093 536.05 29.12C535.405 28.4307 535.082 27.4517 535.082 26.183C535.082 25.5523 535.181 24.9913 535.379 24.5C535.577 24.0013 535.849 23.5833 536.193 23.246C536.538 22.9013 536.949 22.641 537.425 22.465C537.902 22.289 538.419 22.201 538.976 22.201C539.299 22.201 539.592 22.2267 539.856 22.278C540.12 22.322 540.351 22.377 540.549 22.443C540.747 22.5017 540.912 22.564 541.044 22.63C541.176 22.696 541.272 22.7473 541.33 22.784L540.835 24.17C540.601 24.0453 540.326 23.939 540.01 23.851C539.702 23.763 539.35 23.719 538.954 23.719C538.69 23.719 538.43 23.763 538.173 23.851C537.924 23.939 537.7 24.082 537.502 24.28C537.312 24.4707 537.158 24.72 537.04 25.028C536.923 25.336 536.864 25.71 536.864 26.15C536.864 26.502 536.901 26.832 536.974 27.14C537.055 27.4407 537.18 27.701 537.348 27.921C537.524 28.141 537.752 28.317 538.03 28.449C538.309 28.5737 538.646 28.636 539.042 28.636C539.292 28.636 539.515 28.6213 539.713 28.592C539.911 28.5627 540.087 28.5297 540.241 28.493C540.395 28.449 540.531 28.4013 540.648 28.35C540.766 28.2987 540.872 28.251 540.967 28.207L541.44 29.582C541.198 29.7287 540.857 29.8607 540.417 29.978C539.977 30.0953 539.468 30.154 538.888 30.154ZM550.435 22.377V23.84H548.136V30H546.42V23.84H544.121V22.377H550.435ZM556.079 30.099C555.661 30.099 555.243 30.0843 554.825 30.055C554.415 30.033 553.986 29.9743 553.538 29.879V22.487C553.89 22.421 554.275 22.3733 554.693 22.344C555.111 22.3073 555.5 22.289 555.859 22.289C556.343 22.289 556.787 22.3257 557.19 22.399C557.601 22.465 557.953 22.5823 558.246 22.751C558.54 22.9197 558.767 23.1433 558.928 23.422C559.097 23.6933 559.181 24.0307 559.181 24.434C559.181 25.0427 558.888 25.523 558.301 25.875C558.785 26.0583 559.115 26.3077 559.291 26.623C559.467 26.9383 559.555 27.294 559.555 27.69C559.555 28.4893 559.262 29.0907 558.675 29.494C558.096 29.8973 557.231 30.099 556.079 30.099ZM555.21 26.678V28.647C555.335 28.6617 555.471 28.6727 555.617 28.68C555.764 28.6873 555.925 28.691 556.101 28.691C556.615 28.691 557.029 28.6177 557.344 28.471C557.66 28.3243 557.817 28.053 557.817 27.657C557.817 27.305 557.685 27.0557 557.421 26.909C557.157 26.755 556.78 26.678 556.288 26.678H555.21ZM555.21 25.369H556.046C556.574 25.369 556.952 25.303 557.179 25.171C557.407 25.0317 557.52 24.8117 557.52 24.511C557.52 24.203 557.403 23.9867 557.168 23.862C556.934 23.7373 556.589 23.675 556.134 23.675C555.988 23.675 555.83 23.6787 555.661 23.686C555.493 23.686 555.342 23.6933 555.21 23.708V25.369ZM564.37 26.183C564.37 26.557 564.414 26.8943 564.502 27.195C564.597 27.4957 564.729 27.756 564.898 27.976C565.074 28.1887 565.286 28.3537 565.536 28.471C565.785 28.5883 566.071 28.647 566.394 28.647C566.709 28.647 566.991 28.5883 567.241 28.471C567.497 28.3537 567.71 28.1887 567.879 27.976C568.055 27.756 568.187 27.4957 568.275 27.195C568.37 26.8943 568.418 26.557 568.418 26.183C568.418 25.809 568.37 25.4717 568.275 25.171C568.187 24.863 568.055 24.6027 567.879 24.39C567.71 24.17 567.497 24.0013 567.241 23.884C566.991 23.7667 566.709 23.708 566.394 23.708C566.071 23.708 565.785 23.7703 565.536 23.895C565.286 24.0123 565.074 24.181 564.898 24.401C564.729 24.6137 564.597 24.874 564.502 25.182C564.414 25.4827 564.37 25.8163 564.37 26.183ZM570.189 26.183C570.189 26.8357 570.09 27.4113 569.892 27.91C569.701 28.4013 569.437 28.8157 569.1 29.153C568.762 29.483 568.359 29.7323 567.89 29.901C567.428 30.0697 566.929 30.154 566.394 30.154C565.873 30.154 565.382 30.0697 564.92 29.901C564.458 29.7323 564.054 29.483 563.71 29.153C563.365 28.8157 563.094 28.4013 562.896 27.91C562.698 27.4113 562.599 26.8357 562.599 26.183C562.599 25.5303 562.701 24.9583 562.907 24.467C563.112 23.9683 563.387 23.5503 563.732 23.213C564.084 22.8757 564.487 22.6227 564.942 22.454C565.404 22.2853 565.888 22.201 566.394 22.201C566.914 22.201 567.406 22.2853 567.868 22.454C568.33 22.6227 568.733 22.8757 569.078 23.213C569.422 23.5503 569.694 23.9683 569.892 24.467C570.09 24.9583 570.189 25.5303 570.189 26.183ZM388.562 38.347H389.717C389.915 38.347 390.098 38.3323 390.267 38.303C390.443 38.2737 390.593 38.2223 390.718 38.149C390.85 38.0757 390.953 37.9803 391.026 37.863C391.099 37.7457 391.136 37.599 391.136 37.423C391.136 37.1737 391.037 36.9867 390.839 36.862C390.641 36.7373 390.362 36.675 390.003 36.675C389.6 36.675 389.248 36.7227 388.947 36.818C388.646 36.906 388.36 37.027 388.089 37.181L387.539 35.828C387.832 35.6447 388.184 35.498 388.595 35.388C389.013 35.2707 389.486 35.212 390.014 35.212C390.425 35.212 390.806 35.2597 391.158 35.355C391.51 35.443 391.814 35.5787 392.071 35.762C392.328 35.938 392.526 36.1653 392.665 36.444C392.812 36.7153 392.885 37.0343 392.885 37.401C392.885 37.6797 392.808 37.9583 392.654 38.237C392.507 38.5083 392.28 38.7393 391.972 38.93C392.141 39.018 392.298 39.1207 392.445 39.238C392.599 39.3553 392.731 39.491 392.841 39.645C392.958 39.799 393.05 39.975 393.116 40.173C393.182 40.3637 393.215 40.58 393.215 40.822C393.215 41.636 392.925 42.23 392.346 42.604C391.774 42.9707 390.975 43.154 389.948 43.154C389.691 43.154 389.435 43.1357 389.178 43.099C388.929 43.0623 388.687 43.0183 388.452 42.967C388.225 42.9083 388.008 42.8423 387.803 42.769C387.605 42.6957 387.429 42.6187 387.275 42.538L387.781 41.196C387.884 41.24 388.008 41.2913 388.155 41.35C388.309 41.4013 388.478 41.4527 388.661 41.504C388.844 41.5553 389.035 41.5993 389.233 41.636C389.431 41.6727 389.629 41.691 389.827 41.691C390.311 41.691 390.7 41.6213 390.993 41.482C391.294 41.3427 391.444 41.1007 391.444 40.756C391.444 40.5433 391.396 40.371 391.301 40.239C391.206 40.107 391.074 40.008 390.905 39.942C390.744 39.8687 390.549 39.821 390.322 39.799C390.102 39.7697 389.86 39.755 389.596 39.755H388.562V38.347ZM407.506 35.377V43H405.79V36.829H402.952V43H401.236V35.377H407.506ZM411.272 43V35.377H412.977V39.876C413.241 39.48 413.523 39.0693 413.824 38.644C414.124 38.2113 414.425 37.797 414.726 37.401C415.034 36.9977 415.334 36.62 415.628 36.268C415.921 35.916 416.189 35.619 416.431 35.377H417.828V43H416.134V38.006C415.488 38.7613 414.88 39.5643 414.308 40.415C413.736 41.2657 413.204 42.1273 412.713 43H411.272ZM427.24 35.377V36.84H424.941V43H423.225V36.84H420.926V35.377H427.24ZM434.545 43C434.464 42.736 434.372 42.4647 434.27 42.186C434.174 41.9073 434.079 41.6287 433.984 41.35H431.014C430.918 41.6287 430.819 41.9073 430.717 42.186C430.621 42.4647 430.533 42.736 430.453 43H428.671C428.957 42.1787 429.228 41.4197 429.485 40.723C429.741 40.0263 429.991 39.37 430.233 38.754C430.482 38.138 430.724 37.555 430.959 37.005C431.201 36.4477 431.45 35.905 431.707 35.377H433.346C433.595 35.905 433.841 36.4477 434.083 37.005C434.325 37.555 434.567 38.138 434.809 38.754C435.058 39.37 435.311 40.0263 435.568 40.723C435.824 41.4197 436.096 42.1787 436.382 43H434.545ZM432.488 37.104C432.451 37.214 432.396 37.3643 432.323 37.555C432.249 37.7457 432.165 37.9657 432.07 38.215C431.974 38.4643 431.868 38.7393 431.751 39.04C431.641 39.3407 431.527 39.656 431.41 39.986H433.577C433.459 39.656 433.346 39.3407 433.236 39.04C433.126 38.7393 433.019 38.4643 432.917 38.215C432.821 37.9657 432.737 37.7457 432.664 37.555C432.59 37.3643 432.532 37.214 432.488 37.104ZM443.966 35.377H445.682V43H443.966V39.766H441.084V43H439.368V35.377H441.084V38.292H443.966V35.377ZM455.32 40.503C455.32 41.3537 455.005 41.999 454.374 42.439C453.744 42.879 452.864 43.099 451.734 43.099C451.419 43.099 451.056 43.077 450.645 43.033C450.242 42.989 449.842 42.9193 449.446 42.824V35.377H451.162V37.907C451.258 37.8997 451.342 37.896 451.415 37.896C451.496 37.896 451.577 37.896 451.657 37.896C452.897 37.896 453.817 38.1087 454.418 38.534C455.02 38.9593 455.32 39.6157 455.32 40.503ZM451.503 39.348C451.467 39.348 451.415 39.348 451.349 39.348C451.283 39.348 451.221 39.3517 451.162 39.359V41.636C451.243 41.6433 451.335 41.647 451.437 41.647C451.54 41.647 451.665 41.647 451.811 41.647C452.039 41.647 452.259 41.6287 452.471 41.592C452.684 41.5553 452.871 41.493 453.032 41.405C453.194 41.317 453.322 41.1997 453.417 41.053C453.513 40.9063 453.56 40.723 453.56 40.503C453.56 40.2757 453.513 40.0887 453.417 39.942C453.322 39.7953 453.183 39.678 452.999 39.59C452.823 39.502 452.607 39.4397 452.35 39.403C452.101 39.3663 451.819 39.348 451.503 39.348ZM464.022 38.347H465.177C465.375 38.347 465.558 38.3323 465.727 38.303C465.903 38.2737 466.053 38.2223 466.178 38.149C466.31 38.0757 466.413 37.9803 466.486 37.863C466.559 37.7457 466.596 37.599 466.596 37.423C466.596 37.1737 466.497 36.9867 466.299 36.862C466.101 36.7373 465.822 36.675 465.463 36.675C465.06 36.675 464.708 36.7227 464.407 36.818C464.106 36.906 463.82 37.027 463.549 37.181L462.999 35.828C463.292 35.6447 463.644 35.498 464.055 35.388C464.473 35.2707 464.946 35.212 465.474 35.212C465.885 35.212 466.266 35.2597 466.618 35.355C466.97 35.443 467.274 35.5787 467.531 35.762C467.788 35.938 467.986 36.1653 468.125 36.444C468.272 36.7153 468.345 37.0343 468.345 37.401C468.345 37.6797 468.268 37.9583 468.114 38.237C467.967 38.5083 467.74 38.7393 467.432 38.93C467.601 39.018 467.758 39.1207 467.905 39.238C468.059 39.3553 468.191 39.491 468.301 39.645C468.418 39.799 468.51 39.975 468.576 40.173C468.642 40.3637 468.675 40.58 468.675 40.822C468.675 41.636 468.385 42.23 467.806 42.604C467.234 42.9707 466.435 43.154 465.408 43.154C465.151 43.154 464.895 43.1357 464.638 43.099C464.389 43.0623 464.147 43.0183 463.912 42.967C463.685 42.9083 463.468 42.8423 463.263 42.769C463.065 42.6957 462.889 42.6187 462.735 42.538L463.241 41.196C463.344 41.24 463.468 41.2913 463.615 41.35C463.769 41.4013 463.938 41.4527 464.121 41.504C464.304 41.5553 464.495 41.5993 464.693 41.636C464.891 41.6727 465.089 41.691 465.287 41.691C465.771 41.691 466.16 41.6213 466.453 41.482C466.754 41.3427 466.904 41.1007 466.904 40.756C466.904 40.5433 466.856 40.371 466.761 40.239C466.666 40.107 466.534 40.008 466.365 39.942C466.204 39.8687 466.009 39.821 465.782 39.799C465.562 39.7697 465.32 39.755 465.056 39.755H464.022V38.347ZM477.05 43C476.97 42.736 476.878 42.4647 476.775 42.186C476.68 41.9073 476.585 41.6287 476.489 41.35H473.519C473.424 41.6287 473.325 41.9073 473.222 42.186C473.127 42.4647 473.039 42.736 472.958 43H471.176C471.462 42.1787 471.734 41.4197 471.99 40.723C472.247 40.0263 472.496 39.37 472.738 38.754C472.988 38.138 473.23 37.555 473.464 37.005C473.706 36.4477 473.956 35.905 474.212 35.377H475.851C476.101 35.905 476.346 36.4477 476.588 37.005C476.83 37.555 477.072 38.138 477.314 38.754C477.564 39.37 477.817 40.0263 478.073 40.723C478.33 41.4197 478.601 42.1787 478.887 43H477.05ZM474.993 37.104C474.957 37.214 474.902 37.3643 474.828 37.555C474.755 37.7457 474.671 37.9657 474.575 38.215C474.48 38.4643 474.374 38.7393 474.256 39.04C474.146 39.3407 474.033 39.656 473.915 39.986H476.082C475.965 39.656 475.851 39.3407 475.741 39.04C475.631 38.7393 475.525 38.4643 475.422 38.215C475.327 37.9657 475.243 37.7457 475.169 37.555C475.096 37.3643 475.037 37.214 474.993 37.104ZM488.144 35.377V43H486.428V36.829H483.59V43H481.874V35.377H488.144ZM493.35 39.183C493.35 39.557 493.394 39.8943 493.482 40.195C493.578 40.4957 493.71 40.756 493.878 40.976C494.054 41.1887 494.267 41.3537 494.516 41.471C494.766 41.5883 495.052 41.647 495.374 41.647C495.69 41.647 495.972 41.5883 496.221 41.471C496.478 41.3537 496.691 41.1887 496.859 40.976C497.035 40.756 497.167 40.4957 497.255 40.195C497.351 39.8943 497.398 39.557 497.398 39.183C497.398 38.809 497.351 38.4717 497.255 38.171C497.167 37.863 497.035 37.6027 496.859 37.39C496.691 37.17 496.478 37.0013 496.221 36.884C495.972 36.7667 495.69 36.708 495.374 36.708C495.052 36.708 494.766 36.7703 494.516 36.895C494.267 37.0123 494.054 37.181 493.878 37.401C493.71 37.6137 493.578 37.874 493.482 38.182C493.394 38.4827 493.35 38.8163 493.35 39.183ZM499.169 39.183C499.169 39.8357 499.07 40.4113 498.872 40.91C498.682 41.4013 498.418 41.8157 498.08 42.153C497.743 42.483 497.34 42.7323 496.87 42.901C496.408 43.0697 495.91 43.154 495.374 43.154C494.854 43.154 494.362 43.0697 493.9 42.901C493.438 42.7323 493.035 42.483 492.69 42.153C492.346 41.8157 492.074 41.4013 491.876 40.91C491.678 40.4113 491.579 39.8357 491.579 39.183C491.579 38.5303 491.682 37.9583 491.887 37.467C492.093 36.9683 492.368 36.5503 492.712 36.213C493.064 35.8757 493.468 35.6227 493.922 35.454C494.384 35.2853 494.868 35.201 495.374 35.201C495.895 35.201 496.386 35.2853 496.848 35.454C497.31 35.6227 497.714 35.8757 498.058 36.213C498.403 36.5503 498.674 36.9683 498.872 37.467C499.07 37.9583 499.169 38.5303 499.169 39.183ZM504.239 36.829V38.083H504.8C505.364 38.083 505.867 38.127 506.307 38.215C506.754 38.303 507.128 38.446 507.429 38.644C507.737 38.842 507.971 39.0987 508.133 39.414C508.294 39.7293 508.375 40.1143 508.375 40.569C508.375 41.4123 508.067 42.043 507.451 42.461C506.842 42.8717 505.969 43.077 504.833 43.077C504.525 43.077 504.173 43.0587 503.777 43.022C503.388 42.9853 502.996 42.9193 502.6 42.824V35.377H507.66V36.829H504.239ZM504.921 41.614C505.148 41.614 505.364 41.5993 505.57 41.57C505.775 41.5407 505.955 41.4893 506.109 41.416C506.27 41.3353 506.398 41.229 506.494 41.097C506.589 40.965 506.637 40.7927 506.637 40.58C506.637 40.36 506.593 40.1803 506.505 40.041C506.417 39.9017 506.292 39.7917 506.131 39.711C505.969 39.6303 505.771 39.5753 505.537 39.546C505.302 39.5167 505.038 39.502 504.745 39.502H504.239V41.592C504.319 41.5993 504.415 41.6067 504.525 41.614C504.642 41.614 504.774 41.614 504.921 41.614ZM511.754 35.377H513.47V43H511.754V35.377ZM518.95 43H517.234V35.377H522.437V36.829H518.95V43ZM529.957 43C529.876 42.736 529.784 42.4647 529.682 42.186C529.586 41.9073 529.491 41.6287 529.396 41.35H526.426C526.33 41.6287 526.231 41.9073 526.129 42.186C526.033 42.4647 525.945 42.736 525.865 43H524.083C524.369 42.1787 524.64 41.4197 524.897 40.723C525.153 40.0263 525.403 39.37 525.645 38.754C525.894 38.138 526.136 37.555 526.371 37.005C526.613 36.4477 526.862 35.905 527.119 35.377H528.758C529.007 35.905 529.253 36.4477 529.495 37.005C529.737 37.555 529.979 38.138 530.221 38.754C530.47 39.37 530.723 40.0263 530.98 40.723C531.236 41.4197 531.508 42.1787 531.794 43H529.957ZM527.9 37.104C527.863 37.214 527.808 37.3643 527.735 37.555C527.661 37.7457 527.577 37.9657 527.482 38.215C527.386 38.4643 527.28 38.7393 527.163 39.04C527.053 39.3407 526.939 39.656 526.822 39.986H528.989C528.871 39.656 528.758 39.3407 528.648 39.04C528.538 38.7393 528.431 38.4643 528.329 38.215C528.233 37.9657 528.149 37.7457 528.076 37.555C528.002 37.3643 527.944 37.214 527.9 37.104ZM539.378 35.377H541.094V43H539.378V39.766H536.496V43H534.78V35.377H536.496V38.292H539.378V35.377ZM549.457 35.377H551.173V43H549.457V39.766H546.575V43H544.859V35.377H546.575V38.292H549.457V35.377ZM558.369 36.774C558.149 36.774 557.936 36.7923 557.731 36.829C557.533 36.8583 557.357 36.9133 557.203 36.994C557.049 37.0673 556.924 37.1737 556.829 37.313C556.733 37.445 556.686 37.6137 556.686 37.819C556.686 38.2077 556.821 38.4753 557.093 38.622C557.371 38.7687 557.782 38.842 558.325 38.842H559.04V36.785C558.952 36.7777 558.856 36.774 558.754 36.774C558.651 36.774 558.523 36.774 558.369 36.774ZM558.446 35.3C558.754 35.3 559.113 35.3183 559.524 35.355C559.942 35.3917 560.352 35.454 560.756 35.542V43H559.04V40.261H558.512C558.416 40.261 558.325 40.261 558.237 40.261C558.149 40.261 558.042 40.2537 557.918 40.239C557.676 40.569 557.408 40.9833 557.115 41.482C556.829 41.9733 556.561 42.4793 556.312 43H554.497C554.629 42.6993 554.768 42.4023 554.915 42.109C555.069 41.8157 555.223 41.537 555.377 41.273C555.531 41.009 555.681 40.767 555.828 40.547C555.974 40.3197 556.11 40.1217 556.235 39.953C556.073 39.8797 555.912 39.7843 555.751 39.667C555.597 39.5423 555.457 39.3957 555.333 39.227C555.208 39.0583 555.105 38.8603 555.025 38.633C554.951 38.3983 554.915 38.1307 554.915 37.83C554.915 37.412 554.995 37.0453 555.157 36.73C555.325 36.4147 555.56 36.1507 555.861 35.938C556.169 35.7253 556.539 35.5677 556.972 35.465C557.412 35.355 557.903 35.3 558.446 35.3ZM573.662 43C573.508 42.7507 573.325 42.483 573.112 42.197C572.907 41.9037 572.68 41.614 572.43 41.328C572.188 41.0347 571.935 40.756 571.671 40.492C571.407 40.2207 571.143 39.9823 570.879 39.777V43H569.163V35.377H570.879V38.259C571.327 37.7897 571.774 37.302 572.221 36.796C572.676 36.2827 573.098 35.8097 573.486 35.377H575.521C575.001 35.993 574.476 36.587 573.948 37.159C573.428 37.731 572.878 38.3067 572.298 38.886C572.907 39.392 573.494 39.9933 574.058 40.69C574.63 41.3867 575.177 42.1567 575.697 43H573.662ZM579.522 39.183C579.522 39.557 579.566 39.8943 579.654 40.195C579.75 40.4957 579.882 40.756 580.05 40.976C580.226 41.1887 580.439 41.3537 580.688 41.471C580.938 41.5883 581.224 41.647 581.546 41.647C581.862 41.647 582.144 41.5883 582.393 41.471C582.65 41.3537 582.863 41.1887 583.031 40.976C583.207 40.756 583.339 40.4957 583.427 40.195C583.523 39.8943 583.57 39.557 583.57 39.183C583.57 38.809 583.523 38.4717 583.427 38.171C583.339 37.863 583.207 37.6027 583.031 37.39C582.863 37.17 582.65 37.0013 582.393 36.884C582.144 36.7667 581.862 36.708 581.546 36.708C581.224 36.708 580.938 36.7703 580.688 36.895C580.439 37.0123 580.226 37.181 580.05 37.401C579.882 37.6137 579.75 37.874 579.654 38.182C579.566 38.4827 579.522 38.8163 579.522 39.183ZM585.341 39.183C585.341 39.8357 585.242 40.4113 585.044 40.91C584.854 41.4013 584.59 41.8157 584.252 42.153C583.915 42.483 583.512 42.7323 583.042 42.901C582.58 43.0697 582.082 43.154 581.546 43.154C581.026 43.154 580.534 43.0697 580.072 42.901C579.61 42.7323 579.207 42.483 578.862 42.153C578.518 41.8157 578.246 41.4013 578.048 40.91C577.85 40.4113 577.751 39.8357 577.751 39.183C577.751 38.5303 577.854 37.9583 578.059 37.467C578.265 36.9683 578.54 36.5503 578.884 36.213C579.236 35.8757 579.64 35.6227 580.094 35.454C580.556 35.2853 581.04 35.201 581.546 35.201C582.067 35.201 582.558 35.2853 583.02 35.454C583.482 35.6227 583.886 35.8757 584.23 36.213C584.575 36.5503 584.846 36.9683 585.044 37.467C585.242 37.9583 585.341 38.5303 585.341 39.183ZM591.06 35.289C592.196 35.289 593.069 35.4907 593.678 35.894C594.286 36.29 594.591 36.9427 594.591 37.852C594.591 38.7687 594.283 39.4323 593.667 39.843C593.051 40.2463 592.171 40.448 591.027 40.448H590.488V43H588.772V35.487C589.146 35.4137 589.542 35.3623 589.96 35.333C590.378 35.3037 590.744 35.289 591.06 35.289ZM591.17 36.752C591.045 36.752 590.92 36.7557 590.796 36.763C590.678 36.7703 590.576 36.7777 590.488 36.785V38.985H591.027C591.621 38.985 592.068 38.9043 592.369 38.743C592.669 38.5817 592.82 38.281 592.82 37.841C592.82 37.6283 592.779 37.4523 592.699 37.313C592.625 37.1737 592.515 37.0637 592.369 36.983C592.229 36.895 592.057 36.8363 591.852 36.807C591.646 36.7703 591.419 36.752 591.17 36.752ZM601.91 40.767C601.697 41.251 601.473 41.6507 601.239 41.966C601.004 42.274 600.762 42.516 600.513 42.692C600.263 42.868 600.01 42.989 599.754 43.055C599.497 43.121 599.237 43.154 598.973 43.154C598.723 43.154 598.463 43.1283 598.192 43.077C597.928 43.033 597.678 42.967 597.444 42.879L597.752 41.504C598.111 41.636 598.467 41.702 598.819 41.702C599.046 41.702 599.262 41.6507 599.468 41.548C599.68 41.4453 599.882 41.2253 600.073 40.888C599.772 40.4187 599.482 39.9383 599.204 39.447C598.932 38.9483 598.672 38.4607 598.423 37.984C598.181 37.5 597.953 37.038 597.741 36.598C597.535 36.1507 597.352 35.7437 597.191 35.377H599.094C599.211 35.663 599.339 35.971 599.479 36.301C599.625 36.6237 599.779 36.961 599.941 37.313C600.102 37.6577 600.263 38.006 600.425 38.358C600.593 38.7027 600.755 39.04 600.909 39.37C601.143 38.7247 601.367 38.0647 601.58 37.39C601.792 36.7153 601.998 36.0443 602.196 35.377H604.033C603.842 35.9417 603.655 36.4697 603.472 36.961C603.288 37.4523 603.109 37.918 602.933 38.358C602.757 38.798 602.581 39.216 602.405 39.612C602.236 40.008 602.071 40.393 601.91 40.767ZM613.296 35.377V43H611.58V36.829H608.742V43H607.026V35.377H613.296ZM623.332 41.548H624.652V45.035H623.002V43H617.062V35.377H618.778V41.548H621.616V35.377H623.332V41.548ZM627.752 35.377H629.468V43H627.752V35.377ZM633.233 35.377H634.949V43H633.233V35.377ZM632.892 34.618C632.664 34.618 632.466 34.5447 632.298 34.398C632.129 34.244 632.045 34.0387 632.045 33.782C632.045 33.5253 632.129 33.3237 632.298 33.177C632.466 33.023 632.664 32.946 632.892 32.946C633.119 32.946 633.317 33.023 633.486 33.177C633.654 33.3237 633.739 33.5253 633.739 33.782C633.739 34.0387 633.654 34.244 633.486 34.398C633.317 34.5447 633.119 34.618 632.892 34.618ZM635.345 34.618C635.117 34.618 634.919 34.5447 634.751 34.398C634.582 34.244 634.498 34.0387 634.498 33.782C634.498 33.5253 634.582 33.3237 634.751 33.177C634.919 33.023 635.117 32.946 635.345 32.946C635.572 32.946 635.77 33.023 635.939 33.177C636.107 33.3237 636.192 33.5253 636.192 33.782C636.192 34.0387 636.107 34.244 635.939 34.398C635.77 34.5447 635.572 34.618 635.345 34.618Z" fill="#E0E9F4"/>
<path d="M142.845 30C142.683 29.7287 142.496 29.4243 142.284 29.087C142.078 28.7497 141.855 28.4013 141.613 28.042C141.371 27.6753 141.118 27.305 140.854 26.931C140.597 26.557 140.34 26.1977 140.084 25.853C139.827 25.501 139.578 25.171 139.336 24.863C139.094 24.555 138.87 24.2837 138.665 24.049V30H137.62V22.377H138.467C138.811 22.7437 139.178 23.1727 139.567 23.664C139.963 24.148 140.351 24.6503 140.733 25.171C141.121 25.6843 141.484 26.1903 141.822 26.689C142.166 27.1877 142.456 27.6313 142.691 28.02V22.377H143.736V30H142.845ZM152.716 30C152.591 29.67 152.474 29.3473 152.364 29.032C152.254 28.7093 152.14 28.383 152.023 28.053H148.569L147.876 30H146.765C147.058 29.1933 147.333 28.449 147.59 27.767C147.846 27.0777 148.096 26.425 148.338 25.809C148.587 25.193 148.833 24.6063 149.075 24.049C149.317 23.4843 149.57 22.927 149.834 22.377H150.813C151.077 22.927 151.33 23.4843 151.572 24.049C151.814 24.6063 152.056 25.193 152.298 25.809C152.547 26.425 152.8 27.0777 153.057 27.767C153.313 28.449 153.588 29.1933 153.882 30H152.716ZM151.715 27.173C151.48 26.535 151.245 25.919 151.011 25.325C150.783 24.7237 150.545 24.148 150.296 23.598C150.039 24.148 149.793 24.7237 149.559 25.325C149.331 25.919 149.104 26.535 148.877 27.173H151.715ZM161.301 22.377V23.301H158.903V30H157.836V23.301H155.438V22.377H161.301ZM164.427 22.377H165.494V30H164.427V22.377ZM169.074 26.183C169.074 25.5303 169.169 24.9547 169.36 24.456C169.558 23.9573 169.822 23.543 170.152 23.213C170.489 22.8757 170.878 22.6227 171.318 22.454C171.765 22.2853 172.238 22.201 172.737 22.201C173.228 22.201 173.69 22.2853 174.123 22.454C174.563 22.6227 174.948 22.8757 175.278 23.213C175.608 23.543 175.868 23.9573 176.059 24.456C176.257 24.9547 176.356 25.5303 176.356 26.183C176.356 26.8357 176.257 27.4113 176.059 27.91C175.868 28.4087 175.608 28.8267 175.278 29.164C174.948 29.494 174.563 29.7433 174.123 29.912C173.69 30.0807 173.228 30.165 172.737 30.165C172.238 30.165 171.765 30.0807 171.318 29.912C170.878 29.7433 170.489 29.494 170.152 29.164C169.822 28.8267 169.558 28.4087 169.36 27.91C169.169 27.4113 169.074 26.8357 169.074 26.183ZM170.196 26.183C170.196 26.645 170.254 27.0667 170.372 27.448C170.489 27.822 170.654 28.141 170.867 28.405C171.087 28.669 171.351 28.8743 171.659 29.021C171.974 29.1603 172.326 29.23 172.715 29.23C173.103 29.23 173.452 29.1603 173.76 29.021C174.068 28.8743 174.328 28.669 174.541 28.405C174.761 28.141 174.929 27.822 175.047 27.448C175.164 27.0667 175.223 26.645 175.223 26.183C175.223 25.721 175.164 25.303 175.047 24.929C174.929 24.5477 174.761 24.225 174.541 23.961C174.328 23.697 174.068 23.4953 173.76 23.356C173.452 23.2093 173.103 23.136 172.715 23.136C172.326 23.136 171.974 23.2093 171.659 23.356C171.351 23.4953 171.087 23.697 170.867 23.961C170.654 24.225 170.489 24.5477 170.372 24.929C170.254 25.303 170.196 25.721 170.196 26.183ZM185.168 30C185.007 29.7287 184.82 29.4243 184.607 29.087C184.402 28.7497 184.178 28.4013 183.936 28.042C183.694 27.6753 183.441 27.305 183.177 26.931C182.92 26.557 182.664 26.1977 182.407 25.853C182.15 25.501 181.901 25.171 181.659 24.863C181.417 24.555 181.193 24.2837 180.988 24.049V30H179.943V22.377H180.79C181.135 22.7437 181.501 23.1727 181.89 23.664C182.286 24.148 182.675 24.6503 183.056 25.171C183.445 25.6843 183.808 26.1903 184.145 26.689C184.49 27.1877 184.779 27.6313 185.014 28.02V22.377H186.059V30H185.168ZM195.039 30C194.914 29.67 194.797 29.3473 194.687 29.032C194.577 28.7093 194.463 28.383 194.346 28.053H190.892L190.199 30H189.088C189.381 29.1933 189.656 28.449 189.913 27.767C190.17 27.0777 190.419 26.425 190.661 25.809C190.91 25.193 191.156 24.6063 191.398 24.049C191.64 23.4843 191.893 22.927 192.157 22.377H193.136C193.4 22.927 193.653 23.4843 193.895 24.049C194.137 24.6063 194.379 25.193 194.621 25.809C194.87 26.425 195.123 27.0777 195.38 27.767C195.637 28.449 195.912 29.1933 196.205 30H195.039ZM194.038 27.173C193.803 26.535 193.569 25.919 193.334 25.325C193.107 24.7237 192.868 24.148 192.619 23.598C192.362 24.148 192.117 24.7237 191.882 25.325C191.655 25.919 191.427 26.535 191.2 27.173H194.038ZM203.827 29.076V30H199.24V22.377H200.307V29.076H203.827ZM216.583 30C216.458 29.67 216.341 29.3473 216.231 29.032C216.121 28.7093 216.007 28.383 215.89 28.053H212.436L211.743 30H210.632C210.925 29.1933 211.2 28.449 211.457 27.767C211.714 27.0777 211.963 26.425 212.205 25.809C212.454 25.193 212.7 24.6063 212.942 24.049C213.184 23.4843 213.437 22.927 213.701 22.377H214.68C214.944 22.927 215.197 23.4843 215.439 24.049C215.681 24.6063 215.923 25.193 216.165 25.809C216.414 26.425 216.667 27.0777 216.924 27.767C217.181 28.449 217.456 29.1933 217.749 30H216.583ZM215.582 27.173C215.347 26.535 215.113 25.919 214.878 25.325C214.651 24.7237 214.412 24.148 214.163 23.598C213.906 24.148 213.661 24.7237 213.426 25.325C213.199 25.919 212.971 26.535 212.744 27.173H215.582ZM225.233 26.249H226.3V29.813C226.212 29.8423 226.083 29.8753 225.915 29.912C225.753 29.9487 225.563 29.9853 225.343 30.022C225.13 30.0587 224.895 30.088 224.639 30.11C224.382 30.1393 224.122 30.154 223.858 30.154C223.322 30.154 222.835 30.066 222.395 29.89C221.955 29.714 221.577 29.4573 221.262 29.12C220.946 28.7827 220.701 28.3683 220.525 27.877C220.356 27.3857 220.272 26.821 220.272 26.183C220.272 25.545 220.367 24.9803 220.558 24.489C220.756 23.9903 221.02 23.5723 221.35 23.235C221.68 22.8977 222.065 22.641 222.505 22.465C222.952 22.289 223.429 22.201 223.935 22.201C224.279 22.201 224.584 22.223 224.848 22.267C225.119 22.311 225.35 22.3623 225.541 22.421C225.731 22.4797 225.885 22.5383 226.003 22.597C226.127 22.6557 226.212 22.6997 226.256 22.729L225.915 23.62C225.702 23.4807 225.42 23.367 225.068 23.279C224.716 23.1837 224.356 23.136 223.99 23.136C223.601 23.136 223.245 23.2057 222.923 23.345C222.607 23.4843 222.336 23.686 222.109 23.95C221.889 24.214 221.716 24.5367 221.592 24.918C221.467 25.292 221.405 25.7137 221.405 26.183C221.405 26.6377 221.456 27.052 221.559 27.426C221.669 27.8 221.83 28.1227 222.043 28.394C222.263 28.658 222.53 28.8633 222.846 29.01C223.168 29.1567 223.546 29.23 223.979 29.23C224.287 29.23 224.547 29.2153 224.76 29.186C224.98 29.1493 225.137 29.1163 225.233 29.087V26.249ZM229.97 30V22.377H234.623V23.29H231.037V25.556H234.227V26.447H231.037V29.087H234.898V30H229.97ZM243.48 30C243.318 29.7287 243.131 29.4243 242.919 29.087C242.713 28.7497 242.49 28.4013 242.248 28.042C242.006 27.6753 241.753 27.305 241.489 26.931C241.232 26.557 240.975 26.1977 240.719 25.853C240.462 25.501 240.213 25.171 239.971 24.863C239.729 24.555 239.505 24.2837 239.3 24.049V30H238.255V22.377H239.102C239.446 22.7437 239.813 23.1727 240.202 23.664C240.598 24.148 240.986 24.6503 241.368 25.171C241.756 25.6843 242.119 26.1903 242.457 26.689C242.801 27.1877 243.091 27.6313 243.326 28.02V22.377H244.371V30H243.48ZM251.536 30.165C251 30.165 250.513 30.077 250.073 29.901C249.633 29.725 249.255 29.4683 248.94 29.131C248.624 28.7937 248.379 28.3793 248.203 27.888C248.034 27.3893 247.95 26.821 247.95 26.183C247.95 25.545 248.045 24.9803 248.236 24.489C248.434 23.9903 248.698 23.5723 249.028 23.235C249.358 22.8977 249.743 22.641 250.183 22.465C250.623 22.289 251.092 22.201 251.591 22.201C251.906 22.201 252.188 22.223 252.438 22.267C252.694 22.311 252.914 22.3623 253.098 22.421C253.288 22.4797 253.442 22.5383 253.56 22.597C253.677 22.6557 253.758 22.6997 253.802 22.729L253.494 23.609C253.428 23.565 253.332 23.5173 253.208 23.466C253.083 23.4147 252.94 23.3633 252.779 23.312C252.625 23.2607 252.452 23.2203 252.262 23.191C252.078 23.1543 251.891 23.136 251.701 23.136C251.297 23.136 250.934 23.2057 250.612 23.345C250.289 23.4843 250.014 23.686 249.787 23.95C249.559 24.214 249.383 24.5367 249.259 24.918C249.141 25.292 249.083 25.7137 249.083 26.183C249.083 26.6377 249.134 27.052 249.237 27.426C249.347 27.8 249.508 28.1227 249.721 28.394C249.933 28.658 250.197 28.8633 250.513 29.01C250.835 29.1567 251.209 29.23 251.635 29.23C252.126 29.23 252.533 29.1787 252.856 29.076C253.178 28.9733 253.42 28.8817 253.582 28.801L253.857 29.681C253.805 29.7177 253.714 29.7653 253.582 29.824C253.45 29.8753 253.285 29.9267 253.087 29.978C252.889 30.0293 252.658 30.0733 252.394 30.11C252.13 30.1467 251.844 30.165 251.536 30.165ZM259.076 30V26.942C258.57 26.1573 258.094 25.3837 257.646 24.621C257.199 23.8583 256.777 23.1103 256.381 22.377H257.635C257.914 22.9783 258.226 23.5907 258.57 24.214C258.915 24.83 259.271 25.424 259.637 25.996C259.997 25.424 260.349 24.83 260.693 24.214C261.038 23.5907 261.353 22.9783 261.639 22.377H262.827C262.431 23.1103 262.01 23.8583 261.562 24.621C261.115 25.3763 260.642 26.1427 260.143 26.92V30H259.076ZM270.074 26.183C270.074 25.5303 270.169 24.9547 270.36 24.456C270.558 23.9573 270.822 23.543 271.152 23.213C271.489 22.8757 271.878 22.6227 272.318 22.454C272.765 22.2853 273.238 22.201 273.737 22.201C274.228 22.201 274.69 22.2853 275.123 22.454C275.563 22.6227 275.948 22.8757 276.278 23.213C276.608 23.543 276.868 23.9573 277.059 24.456C277.257 24.9547 277.356 25.5303 277.356 26.183C277.356 26.8357 277.257 27.4113 277.059 27.91C276.868 28.4087 276.608 28.8267 276.278 29.164C275.948 29.494 275.563 29.7433 275.123 29.912C274.69 30.0807 274.228 30.165 273.737 30.165C273.238 30.165 272.765 30.0807 272.318 29.912C271.878 29.7433 271.489 29.494 271.152 29.164C270.822 28.8267 270.558 28.4087 270.36 27.91C270.169 27.4113 270.074 26.8357 270.074 26.183ZM271.196 26.183C271.196 26.645 271.254 27.0667 271.372 27.448C271.489 27.822 271.654 28.141 271.867 28.405C272.087 28.669 272.351 28.8743 272.659 29.021C272.974 29.1603 273.326 29.23 273.715 29.23C274.103 29.23 274.452 29.1603 274.76 29.021C275.068 28.8743 275.328 28.669 275.541 28.405C275.761 28.141 275.929 27.822 276.047 27.448C276.164 27.0667 276.223 26.645 276.223 26.183C276.223 25.721 276.164 25.303 276.047 24.929C275.929 24.5477 275.761 24.225 275.541 23.961C275.328 23.697 275.068 23.4953 274.76 23.356C274.452 23.2093 274.103 23.136 273.715 23.136C273.326 23.136 272.974 23.2093 272.659 23.356C272.351 23.4953 272.087 23.697 271.867 23.961C271.654 24.225 271.489 24.5477 271.372 24.929C271.254 25.303 271.196 25.721 271.196 26.183ZM286.168 30C286.007 29.7287 285.82 29.4243 285.607 29.087C285.402 28.7497 285.178 28.4013 284.936 28.042C284.694 27.6753 284.441 27.305 284.177 26.931C283.92 26.557 283.664 26.1977 283.407 25.853C283.15 25.501 282.901 25.171 282.659 24.863C282.417 24.555 282.193 24.2837 281.988 24.049V30H280.943V22.377H281.79C282.135 22.7437 282.501 23.1727 282.89 23.664C283.286 24.148 283.675 24.6503 284.056 25.171C284.445 25.6843 284.808 26.1903 285.145 26.689C285.49 27.1877 285.779 27.6313 286.014 28.02V22.377H287.059V30H286.168ZM113.532 43.165C112.996 43.165 112.509 43.077 112.069 42.901C111.629 42.725 111.251 42.4683 110.936 42.131C110.62 41.7937 110.375 41.3793 110.199 40.888C110.03 40.3893 109.946 39.821 109.946 39.183C109.946 38.545 110.041 37.9803 110.232 37.489C110.43 36.9903 110.694 36.5723 111.024 36.235C111.354 35.8977 111.739 35.641 112.179 35.465C112.619 35.289 113.088 35.201 113.587 35.201C113.902 35.201 114.184 35.223 114.434 35.267C114.69 35.311 114.91 35.3623 115.094 35.421C115.284 35.4797 115.438 35.5383 115.556 35.597C115.673 35.6557 115.754 35.6997 115.798 35.729L115.49 36.609C115.424 36.565 115.328 36.5173 115.204 36.466C115.079 36.4147 114.936 36.3633 114.775 36.312C114.621 36.2607 114.448 36.2203 114.258 36.191C114.074 36.1543 113.887 36.136 113.697 36.136C113.293 36.136 112.93 36.2057 112.608 36.345C112.285 36.4843 112.01 36.686 111.783 36.95C111.555 37.214 111.379 37.5367 111.255 37.918C111.137 38.292 111.079 38.7137 111.079 39.183C111.079 39.6377 111.13 40.052 111.233 40.426C111.343 40.8 111.504 41.1227 111.717 41.394C111.929 41.658 112.193 41.8633 112.509 42.01C112.831 42.1567 113.205 42.23 113.631 42.23C114.122 42.23 114.529 42.1787 114.852 42.076C115.174 41.9733 115.416 41.8817 115.578 41.801L115.853 42.681C115.801 42.7177 115.71 42.7653 115.578 42.824C115.446 42.8753 115.281 42.9267 115.083 42.978C114.885 43.0293 114.654 43.0733 114.39 43.11C114.126 43.1467 113.84 43.165 113.532 43.165ZM118.552 39.183C118.552 38.5303 118.647 37.9547 118.838 37.456C119.036 36.9573 119.3 36.543 119.63 36.213C119.967 35.8757 120.356 35.6227 120.796 35.454C121.243 35.2853 121.716 35.201 122.215 35.201C122.706 35.201 123.168 35.2853 123.601 35.454C124.041 35.6227 124.426 35.8757 124.756 36.213C125.086 36.543 125.346 36.9573 125.537 37.456C125.735 37.9547 125.834 38.5303 125.834 39.183C125.834 39.8357 125.735 40.4113 125.537 40.91C125.346 41.4087 125.086 41.8267 124.756 42.164C124.426 42.494 124.041 42.7433 123.601 42.912C123.168 43.0807 122.706 43.165 122.215 43.165C121.716 43.165 121.243 43.0807 120.796 42.912C120.356 42.7433 119.967 42.494 119.63 42.164C119.3 41.8267 119.036 41.4087 118.838 40.91C118.647 40.4113 118.552 39.8357 118.552 39.183ZM119.674 39.183C119.674 39.645 119.733 40.0667 119.85 40.448C119.967 40.822 120.132 41.141 120.345 41.405C120.565 41.669 120.829 41.8743 121.137 42.021C121.452 42.1603 121.804 42.23 122.193 42.23C122.582 42.23 122.93 42.1603 123.238 42.021C123.546 41.8743 123.806 41.669 124.019 41.405C124.239 41.141 124.408 40.822 124.525 40.448C124.642 40.0667 124.701 39.645 124.701 39.183C124.701 38.721 124.642 38.303 124.525 37.929C124.408 37.5477 124.239 37.225 124.019 36.961C123.806 36.697 123.546 36.4953 123.238 36.356C122.93 36.2093 122.582 36.136 122.193 36.136C121.804 36.136 121.452 36.2093 121.137 36.356C120.829 36.4953 120.565 36.697 120.345 36.961C120.132 37.225 119.967 37.5477 119.85 37.929C119.733 38.303 119.674 38.721 119.674 39.183ZM133.151 39.81C133.268 39.9567 133.415 40.151 133.591 40.393C133.774 40.6277 133.961 40.8917 134.152 41.185C134.342 41.471 134.529 41.7717 134.713 42.087C134.903 42.4023 135.065 42.7067 135.197 43H134.031C133.884 42.7213 133.723 42.439 133.547 42.153C133.378 41.867 133.206 41.5957 133.03 41.339C132.854 41.075 132.678 40.8293 132.502 40.602C132.333 40.3747 132.179 40.1767 132.04 40.008C131.944 40.0153 131.845 40.019 131.743 40.019C131.647 40.019 131.548 40.019 131.446 40.019H130.489V43H129.422V35.487C129.722 35.4137 130.056 35.366 130.423 35.344C130.797 35.3147 131.138 35.3 131.446 35.3C132.516 35.3 133.33 35.5017 133.888 35.905C134.452 36.3083 134.735 36.9097 134.735 37.709C134.735 38.215 134.599 38.6477 134.328 39.007C134.064 39.3663 133.671 39.634 133.151 39.81ZM131.534 36.235C131.079 36.235 130.731 36.246 130.489 36.268V39.139H131.248C131.614 39.139 131.944 39.1207 132.238 39.084C132.531 39.0473 132.777 38.9777 132.975 38.875C133.18 38.7723 133.338 38.6293 133.448 38.446C133.558 38.2553 133.613 38.006 133.613 37.698C133.613 37.412 133.558 37.1737 133.448 36.983C133.338 36.7923 133.187 36.642 132.997 36.532C132.813 36.422 132.593 36.345 132.337 36.301C132.087 36.257 131.82 36.235 131.534 36.235ZM142.069 39.81C142.186 39.9567 142.333 40.151 142.509 40.393C142.692 40.6277 142.879 40.8917 143.07 41.185C143.26 41.471 143.447 41.7717 143.631 42.087C143.821 42.4023 143.983 42.7067 144.115 43H142.949C142.802 42.7213 142.641 42.439 142.465 42.153C142.296 41.867 142.124 41.5957 141.948 41.339C141.772 41.075 141.596 40.8293 141.42 40.602C141.251 40.3747 141.097 40.1767 140.958 40.008C140.862 40.0153 140.763 40.019 140.661 40.019C140.565 40.019 140.466 40.019 140.364 40.019H139.407V43H138.34V35.487C138.64 35.4137 138.974 35.366 139.341 35.344C139.715 35.3147 140.056 35.3 140.364 35.3C141.434 35.3 142.248 35.5017 142.806 35.905C143.37 36.3083 143.653 36.9097 143.653 37.709C143.653 38.215 143.517 38.6477 143.246 39.007C142.982 39.3663 142.589 39.634 142.069 39.81ZM140.452 36.235C139.997 36.235 139.649 36.246 139.407 36.268V39.139H140.166C140.532 39.139 140.862 39.1207 141.156 39.084C141.449 39.0473 141.695 38.9777 141.893 38.875C142.098 38.7723 142.256 38.6293 142.366 38.446C142.476 38.2553 142.531 38.006 142.531 37.698C142.531 37.412 142.476 37.1737 142.366 36.983C142.256 36.7923 142.105 36.642 141.915 36.532C141.731 36.422 141.511 36.345 141.255 36.301C141.005 36.257 140.738 36.235 140.452 36.235ZM150.096 43.165C149.597 43.165 149.164 43.088 148.798 42.934C148.431 42.78 148.13 42.571 147.896 42.307C147.661 42.0357 147.485 41.7167 147.368 41.35C147.258 40.9833 147.203 40.5873 147.203 40.162V35.377H148.27V40.041C148.27 40.8037 148.438 41.3573 148.776 41.702C149.113 42.0467 149.553 42.219 150.096 42.219C150.367 42.219 150.613 42.1787 150.833 42.098C151.06 42.01 151.254 41.878 151.416 41.702C151.577 41.526 151.702 41.3023 151.79 41.031C151.878 40.7523 151.922 40.4223 151.922 40.041V35.377H152.989V40.162C152.989 40.5873 152.93 40.9833 152.813 41.35C152.703 41.7167 152.527 42.0357 152.285 42.307C152.05 42.571 151.749 42.78 151.383 42.934C151.023 43.088 150.594 43.165 150.096 43.165ZM158.855 35.3C159.925 35.3 160.747 35.5053 161.319 35.916C161.898 36.3193 162.188 36.9243 162.188 37.731C162.188 38.171 162.107 38.5487 161.946 38.864C161.792 39.172 161.564 39.425 161.264 39.623C160.97 39.8137 160.611 39.953 160.186 40.041C159.76 40.129 159.28 40.173 158.745 40.173H157.898V43H156.831V35.487C157.131 35.4137 157.465 35.366 157.832 35.344C158.206 35.3147 158.547 35.3 158.855 35.3ZM158.943 36.235C158.488 36.235 158.14 36.246 157.898 36.268V39.26H158.701C159.067 39.26 159.397 39.238 159.691 39.194C159.984 39.1427 160.23 39.062 160.428 38.952C160.633 38.8347 160.791 38.677 160.901 38.479C161.011 38.281 161.066 38.028 161.066 37.72C161.066 37.4267 161.007 37.1847 160.89 36.994C160.78 36.8033 160.626 36.653 160.428 36.543C160.237 36.4257 160.013 36.345 159.757 36.301C159.5 36.257 159.229 36.235 158.943 36.235ZM170.616 35.377V36.301H168.218V43H167.151V36.301H164.753V35.377H170.616ZM173.743 35.377H174.81V43H173.743V35.377ZM178.389 39.183C178.389 38.5303 178.484 37.9547 178.675 37.456C178.873 36.9573 179.137 36.543 179.467 36.213C179.804 35.8757 180.193 35.6227 180.633 35.454C181.08 35.2853 181.553 35.201 182.052 35.201C182.543 35.201 183.005 35.2853 183.438 35.454C183.878 35.6227 184.263 35.8757 184.593 36.213C184.923 36.543 185.183 36.9573 185.374 37.456C185.572 37.9547 185.671 38.5303 185.671 39.183C185.671 39.8357 185.572 40.4113 185.374 40.91C185.183 41.4087 184.923 41.8267 184.593 42.164C184.263 42.494 183.878 42.7433 183.438 42.912C183.005 43.0807 182.543 43.165 182.052 43.165C181.553 43.165 181.08 43.0807 180.633 42.912C180.193 42.7433 179.804 42.494 179.467 42.164C179.137 41.8267 178.873 41.4087 178.675 40.91C178.484 40.4113 178.389 39.8357 178.389 39.183ZM179.511 39.183C179.511 39.645 179.57 40.0667 179.687 40.448C179.804 40.822 179.969 41.141 180.182 41.405C180.402 41.669 180.666 41.8743 180.974 42.021C181.289 42.1603 181.641 42.23 182.03 42.23C182.419 42.23 182.767 42.1603 183.075 42.021C183.383 41.8743 183.643 41.669 183.856 41.405C184.076 41.141 184.245 40.822 184.362 40.448C184.479 40.0667 184.538 39.645 184.538 39.183C184.538 38.721 184.479 38.303 184.362 37.929C184.245 37.5477 184.076 37.225 183.856 36.961C183.643 36.697 183.383 36.4953 183.075 36.356C182.767 36.2093 182.419 36.136 182.03 36.136C181.641 36.136 181.289 36.2093 180.974 36.356C180.666 36.4953 180.402 36.697 180.182 36.961C179.969 37.225 179.804 37.5477 179.687 37.929C179.57 38.303 179.511 38.721 179.511 39.183ZM194.484 43C194.322 42.7287 194.135 42.4243 193.923 42.087C193.717 41.7497 193.494 41.4013 193.252 41.042C193.01 40.6753 192.757 40.305 192.493 39.931C192.236 39.557 191.979 39.1977 191.723 38.853C191.466 38.501 191.217 38.171 190.975 37.863C190.733 37.555 190.509 37.2837 190.304 37.049V43H189.259V35.377H190.106C190.45 35.7437 190.817 36.1727 191.206 36.664C191.602 37.148 191.99 37.6503 192.372 38.171C192.76 38.6843 193.123 39.1903 193.461 39.689C193.805 40.1877 194.095 40.6313 194.33 41.02V35.377H195.375V43H194.484ZM205.831 35.3C206.902 35.3 207.723 35.5053 208.295 35.916C208.875 36.3193 209.164 36.9243 209.164 37.731C209.164 38.171 209.084 38.5487 208.922 38.864C208.768 39.172 208.541 39.425 208.24 39.623C207.947 39.8137 207.588 39.953 207.162 40.041C206.737 40.129 206.257 40.173 205.721 40.173H204.874V43H203.807V35.487C204.108 35.4137 204.442 35.366 204.808 35.344C205.182 35.3147 205.523 35.3 205.831 35.3ZM205.919 36.235C205.465 36.235 205.116 36.246 204.874 36.268V39.26H205.677C206.044 39.26 206.374 39.238 206.667 39.194C206.961 39.1427 207.206 39.062 207.404 38.952C207.61 38.8347 207.767 38.677 207.877 38.479C207.987 38.281 208.042 38.028 208.042 37.72C208.042 37.4267 207.984 37.1847 207.866 36.994C207.756 36.8033 207.602 36.653 207.404 36.543C207.214 36.4257 206.99 36.345 206.733 36.301C206.477 36.257 206.205 36.235 205.919 36.235ZM216.229 39.81C216.346 39.9567 216.493 40.151 216.669 40.393C216.852 40.6277 217.039 40.8917 217.23 41.185C217.42 41.471 217.607 41.7717 217.791 42.087C217.981 42.4023 218.143 42.7067 218.275 43H217.109C216.962 42.7213 216.801 42.439 216.625 42.153C216.456 41.867 216.284 41.5957 216.108 41.339C215.932 41.075 215.756 40.8293 215.58 40.602C215.411 40.3747 215.257 40.1767 215.118 40.008C215.022 40.0153 214.923 40.019 214.821 40.019C214.725 40.019 214.626 40.019 214.524 40.019H213.567V43H212.5V35.487C212.8 35.4137 213.134 35.366 213.501 35.344C213.875 35.3147 214.216 35.3 214.524 35.3C215.594 35.3 216.408 35.5017 216.966 35.905C217.53 36.3083 217.813 36.9097 217.813 37.709C217.813 38.215 217.677 38.6477 217.406 39.007C217.142 39.3663 216.749 39.634 216.229 39.81ZM214.612 36.235C214.157 36.235 213.809 36.246 213.567 36.268V39.139H214.326C214.692 39.139 215.022 39.1207 215.316 39.084C215.609 39.0473 215.855 38.9777 216.053 38.875C216.258 38.7723 216.416 38.6293 216.526 38.446C216.636 38.2553 216.691 38.006 216.691 37.698C216.691 37.412 216.636 37.1737 216.526 36.983C216.416 36.7923 216.265 36.642 216.075 36.532C215.891 36.422 215.671 36.345 215.415 36.301C215.165 36.257 214.898 36.235 214.612 36.235ZM221.418 43V35.377H226.071V36.29H222.485V38.556H225.675V39.447H222.485V42.087H226.346V43H221.418ZM235.862 35.377C235.583 36.1837 235.316 36.9317 235.059 37.621C234.81 38.303 234.564 38.952 234.322 39.568C234.08 40.184 233.838 40.7743 233.596 41.339C233.361 41.8963 233.119 42.45 232.87 43H231.869C231.62 42.45 231.374 41.8963 231.132 41.339C230.897 40.7743 230.655 40.184 230.406 39.568C230.164 38.952 229.915 38.303 229.658 37.621C229.401 36.9317 229.137 36.1837 228.866 35.377H230.043C230.439 36.5357 230.828 37.6503 231.209 38.721C231.59 39.7917 231.983 40.7963 232.386 41.735C232.789 40.8037 233.182 39.8027 233.563 38.732C233.944 37.654 234.329 36.5357 234.718 35.377H235.862ZM238.921 43V35.377H243.574V36.29H239.988V38.556H243.178V39.447H239.988V42.087H243.849V43H238.921ZM252.43 43C252.268 42.7287 252.081 42.4243 251.869 42.087C251.663 41.7497 251.44 41.4013 251.198 41.042C250.956 40.6753 250.703 40.305 250.439 39.931C250.182 39.557 249.925 39.1977 249.669 38.853C249.412 38.501 249.163 38.171 248.921 37.863C248.679 37.555 248.455 37.2837 248.25 37.049V43H247.205V35.377H248.052C248.396 35.7437 248.763 36.1727 249.152 36.664C249.548 37.148 249.936 37.6503 250.318 38.171C250.706 38.6843 251.069 39.1903 251.407 39.689C251.751 40.1877 252.041 40.6313 252.276 41.02V35.377H253.321V43H252.43ZM262.301 35.377V36.301H259.903V43H258.836V36.301H256.438V35.377H262.301ZM265.427 35.377H266.494V43H265.427V35.377ZM270.074 39.183C270.074 38.5303 270.169 37.9547 270.36 37.456C270.558 36.9573 270.822 36.543 271.152 36.213C271.489 35.8757 271.878 35.6227 272.318 35.454C272.765 35.2853 273.238 35.201 273.737 35.201C274.228 35.201 274.69 35.2853 275.123 35.454C275.563 35.6227 275.948 35.8757 276.278 36.213C276.608 36.543 276.868 36.9573 277.059 37.456C277.257 37.9547 277.356 38.5303 277.356 39.183C277.356 39.8357 277.257 40.4113 277.059 40.91C276.868 41.4087 276.608 41.8267 276.278 42.164C275.948 42.494 275.563 42.7433 275.123 42.912C274.69 43.0807 274.228 43.165 273.737 43.165C273.238 43.165 272.765 43.0807 272.318 42.912C271.878 42.7433 271.489 42.494 271.152 42.164C270.822 41.8267 270.558 41.4087 270.36 40.91C270.169 40.4113 270.074 39.8357 270.074 39.183ZM271.196 39.183C271.196 39.645 271.254 40.0667 271.372 40.448C271.489 40.822 271.654 41.141 271.867 41.405C272.087 41.669 272.351 41.8743 272.659 42.021C272.974 42.1603 273.326 42.23 273.715 42.23C274.103 42.23 274.452 42.1603 274.76 42.021C275.068 41.8743 275.328 41.669 275.541 41.405C275.761 41.141 275.929 40.822 276.047 40.448C276.164 40.0667 276.223 39.645 276.223 39.183C276.223 38.721 276.164 38.303 276.047 37.929C275.929 37.5477 275.761 37.225 275.541 36.961C275.328 36.697 275.068 36.4953 274.76 36.356C274.452 36.2093 274.103 36.136 273.715 36.136C273.326 36.136 272.974 36.2093 272.659 36.356C272.351 36.4953 272.087 36.697 271.867 36.961C271.654 37.225 271.489 37.5477 271.372 37.929C271.254 38.303 271.196 38.721 271.196 39.183ZM286.168 43C286.007 42.7287 285.82 42.4243 285.607 42.087C285.402 41.7497 285.178 41.4013 284.936 41.042C284.694 40.6753 284.441 40.305 284.177 39.931C283.92 39.557 283.664 39.1977 283.407 38.853C283.15 38.501 282.901 38.171 282.659 37.863C282.417 37.555 282.193 37.2837 281.988 37.049V43H280.943V35.377H281.79C282.135 35.7437 282.501 36.1727 282.89 36.664C283.286 37.148 283.675 37.6503 284.056 38.171C284.445 38.6843 284.808 39.1903 285.145 39.689C285.49 40.1877 285.779 40.6313 286.014 41.02V35.377H287.059V43H286.168Z" fill="white"/>
<line x1="340.905" y1="6.55671e-08" x2="340.905" y2="64.2162" stroke="url(#paint0_linear)" stroke-width="3"/>
<line x1="346.614" y1="32.1081" x2="346.614" y2="56.3675" stroke="url(#paint1_linear)" stroke-width="3"/>
<line x1="352.084" y1="43.0486" x2="352.084" y2="50.4216" stroke="url(#paint2_linear)" stroke-width="3"/>
<line x1="358.03" y1="37.3405" x2="358.03" y2="50.4216" stroke="url(#paint3_linear)" stroke-width="3"/>
<line x1="358.03" y1="13.0811" x2="358.03" y2="27.5892" stroke="url(#paint4_linear)" stroke-width="3"/>
<line x1="363.5" y1="4.28107" x2="363.5" y2="50.6594" stroke="url(#paint5_linear)" stroke-width="3"/>
<line y1="-1.5" x2="24.2594" y2="-1.5" transform="matrix(-4.37114e-08 1 1 4.37114e-08 334.886 32.1081)" stroke="url(#paint6_linear)" stroke-width="3"/>
<line y1="-1.5" x2="7.37297" y2="-1.5" transform="matrix(-4.37114e-08 1 1 4.37114e-08 329.416 43.0486)" stroke="url(#paint7_linear)" stroke-width="3"/>
<line y1="-1.5" x2="13.0811" y2="-1.5" transform="matrix(-4.37114e-08 1 1 4.37114e-08 323.47 37.3405)" stroke="url(#paint8_linear)" stroke-width="3"/>
<line y1="-1.5" x2="14.5081" y2="-1.5" transform="matrix(-4.37114e-08 1 1 4.37114e-08 323.47 13.0811)" stroke="url(#paint9_linear)" stroke-width="3"/>
<line y1="-1.5" x2="46.3784" y2="-1.5" transform="matrix(-4.37114e-08 1 1 4.37114e-08 318 4.28107)" stroke="url(#paint10_linear)" stroke-width="3"/>
<defs>
<linearGradient id="paint0_linear" x1="339.405" y1="32.1081" x2="338.405" y2="32.1081" gradientUnits="userSpaceOnUse">
<stop stop-color="#FFF84C"/>
<stop offset="1" stop-color="#FFF84C"/>
</linearGradient>
<linearGradient id="paint1_linear" x1="345.114" y1="44.2378" x2="344.114" y2="44.2378" gradientUnits="userSpaceOnUse">
<stop stop-color="#FFF84C"/>
<stop offset="1" stop-color="#FFF84C"/>
</linearGradient>
<linearGradient id="paint2_linear" x1="350.584" y1="46.7351" x2="349.584" y2="46.7351" gradientUnits="userSpaceOnUse">
<stop stop-color="#FFF84C"/>
<stop offset="1" stop-color="#FFF84C"/>
</linearGradient>
<linearGradient id="paint3_linear" x1="356.53" y1="43.8811" x2="355.53" y2="43.8811" gradientUnits="userSpaceOnUse">
<stop stop-color="#FFF84C"/>
<stop offset="1" stop-color="#FFF84C"/>
</linearGradient>
<linearGradient id="paint4_linear" x1="356.53" y1="20.3351" x2="355.53" y2="20.3351" gradientUnits="userSpaceOnUse">
<stop stop-color="#FFF84C"/>
<stop offset="1" stop-color="#FFF84C"/>
</linearGradient>
<linearGradient id="paint5_linear" x1="362" y1="27.4702" x2="361" y2="27.4702" gradientUnits="userSpaceOnUse">
<stop stop-color="#FFF84C"/>
<stop offset="1" stop-color="#FFF84C"/>
</linearGradient>
<linearGradient id="paint6_linear" x1="12.1297" y1="0" x2="12.1297" y2="1" gradientUnits="userSpaceOnUse">
<stop stop-color="#FFF84C"/>
<stop offset="1" stop-color="#FFF84C"/>
</linearGradient>
<linearGradient id="paint7_linear" x1="3.68648" y1="0" x2="3.68648" y2="1" gradientUnits="userSpaceOnUse">
<stop stop-color="#FFF84C"/>
<stop offset="1" stop-color="#FFF84C"/>
</linearGradient>
<linearGradient id="paint8_linear" x1="6.54054" y1="0" x2="6.54054" y2="1" gradientUnits="userSpaceOnUse">
<stop stop-color="#FFF84C"/>
<stop offset="1" stop-color="#FFF84C"/>
</linearGradient>
<linearGradient id="paint9_linear" x1="7.25405" y1="0" x2="7.25405" y2="1" gradientUnits="userSpaceOnUse">
<stop stop-color="#FFF84C"/>
<stop offset="1" stop-color="#FFF84C"/>
</linearGradient>
<linearGradient id="paint10_linear" x1="23.1892" y1="0" x2="23.1892" y2="1" gradientUnits="userSpaceOnUse">
<stop stop-color="#FFF84C"/>
<stop offset="1" stop-color="#FFF84C"/>
</linearGradient>
</defs>
</svg>
