<svg width="42" height="42" viewBox="0 0 42 42" fill="none" xmlns="http://www.w3.org/2000/svg">
                    <g clip-path="url(#clip0)">
                        <path fill-rule="evenodd" clip-rule="evenodd"
                              d="M24.0524 25.0525C24.1685 24.9363 24.3063 24.8441 24.4581 24.7812C24.6098 24.7183 24.7725 24.6859 24.9367 24.6859C25.101 24.6859 25.2637 24.7183 25.4154 24.7812C25.5672 24.8441 25.705 24.9363 25.8211 25.0525L30.6336 29.865C30.8682 30.0994 31 30.4174 31.0001 30.749C31.0002 31.0805 30.8686 31.3986 30.6342 31.6331C30.3999 31.8677 30.0819 31.9995 29.7503 31.9996C29.4187 31.9998 29.1007 31.8682 28.8661 31.6338L24.0536 26.8213C23.9374 26.7052 23.8452 26.5673 23.7823 26.4156C23.7194 26.2638 23.687 26.1012 23.687 25.9369C23.687 25.7726 23.7194 25.61 23.7823 25.4582C23.8452 25.3065 23.9374 25.1686 24.0536 25.0525H24.0524Z"
                              fill="white"/>
                        <path fill-rule="evenodd" clip-rule="evenodd"
                              d="M19.125 27C20.0278 27 20.9218 26.8222 21.7559 26.4767C22.5901 26.1312 23.348 25.6248 23.9864 24.9864C24.6248 24.348 25.1312 23.5901 25.4767 22.7559C25.8222 21.9218 26 21.0278 26 20.125C26 19.2222 25.8222 18.3282 25.4767 17.4941C25.1312 16.6599 24.6248 15.902 23.9864 15.2636C23.348 14.6252 22.5901 14.1188 21.7559 13.7733C20.9218 13.4278 20.0278 13.25 19.125 13.25C17.3016 13.25 15.553 13.9743 14.2636 15.2636C12.9743 16.553 12.25 18.3016 12.25 20.125C12.25 21.9484 12.9743 23.697 14.2636 24.9864C15.553 26.2757 17.3016 27 19.125 27ZM27.25 20.125C27.25 22.2799 26.394 24.3465 24.8702 25.8702C23.3465 27.394 21.2799 28.25 19.125 28.25C16.9701 28.25 14.9035 27.394 13.3798 25.8702C11.856 24.3465 11 22.2799 11 20.125C11 17.9701 11.856 15.9035 13.3798 14.3798C14.9035 12.856 16.9701 12 19.125 12C21.2799 12 23.3465 12.856 24.8702 14.3798C26.394 15.9035 27.25 17.9701 27.25 20.125Z"
                              fill="white"/>
                    </g>
                    <circle cx="21" cy="21" r="20.5" stroke="white" stroke-opacity="0.5"/>
                    <defs>
                        <clipPath id="clip0">
                            <rect width="20" height="20" fill="white" transform="translate(11 12)"/>
                        </clipPath>
                    </defs>
                </svg>